<svg width="1600" height="1000" viewBox="0 0 1600 1000" fill="none" xmlns="http://www.w3.org/2000/svg">
  <rect width="1600" height="1000" fill="#07111F"/>
  <rect x="230" y="170" width="1140" height="660" rx="36" fill="#0F1B2B"/>
  <rect x="280" y="240" width="1020" height="520" rx="24" stroke="#C79B4F" stroke-width="6"/>
  <rect x="330" y="292" width="240" height="140" rx="16" fill="#F5EFE3"/>
  <rect x="610" y="292" width="240" height="140" rx="16" fill="#C79B4F" fill-opacity="0.92"/>
  <rect x="890" y="292" width="240" height="140" rx="16" fill="#F5EFE3"/>
  <rect x="330" y="470" width="800" height="200" rx="24" fill="#F5EFE3" fill-opacity="0.9"/>
  <rect x="360" y="500" width="260" height="18" rx="9" fill="#0F1B2B"/>
  <rect x="360" y="536" width="420" height="18" rx="9" fill="#C79B4F"/>
  <rect x="360" y="572" width="340" height="18" rx="9" fill="#0F1B2B"/>
  <rect x="1180" y="240" width="80" height="520" rx="16" fill="#C79B4F" fill-opacity="0.7"/>
  <rect x="320" y="220" width="960" height="36" rx="18" fill="#C79B4F"/>
  <circle cx="1270" cy="300" r="70" fill="#F5EFE3" fill-opacity="0.25"/>
  <rect x="280" y="230" width="90" height="500" rx="18" fill="#C79B4F" fill-opacity="0.25"/>
  <text x="330" y="780" fill="#F5EFE3" font-family="Georgia, 'Times New Roman', serif" font-size="52" letter-spacing="4">ADVOCACIA BOUTIQUE</text>
</svg>